<svg xmlns="http://www.w3.org/2000/svg" version="1.1" xmlns:xlink="http://www.w3.org/1999/xlink" xmlns:svgjs="http://svgjs.dev/svgjs" width="100%" height="100%" viewBox="0 0 1000 600"><rect width="1000" height="600" x="0" y="0" fill="#141a46"/><g><rect width="333.3333333333333" height="333.3333333333333" rx="13.333333333333334" ry="13.333333333333334" y="248.75038476822772" fill="#ec8b5e" transform="matrix(0.5518077812082147,0,0,0.5518077812082147,0,70.76963756359436)" x="226.52815246582028"/><path d="M339.4706190880422 357.5558924217522L339.4706190880422 340.41705540344276L446.91902587934857 340.41705540344276L446.91902587934857 382.8842229906825L426.6282188346833 382.8842229906825L426.6282188346833 357.5558924217522L373.10101356567736 357.5558924217522L373.10101356567736 405.73600568176175L424.65823756821095 405.73600568176175L424.65823756821095 422.3401334991716L373.10101356567736 422.3401334991716L373.10101356567736 473.39079089032657L388.1291563699093 473.39079089032657L388.1291563699093 490.41705755055193L339.4706190880422 490.41705755055193L339.4706190880422 473.39079089032657L353.7107693856852 473.39079089032657L353.7107693856852 357.5558924217522L339.4706190880422 357.5558924217522Z " fill="#141a46" transform="matrix(0.5518077812082147,0,0,0.5518077812082147,0,70.76963756359436)"/><path d="M643.1948241228616 358.56992139196376L643.1948241228616 341.94571780112227L747.4168426940156 341.94571780112227L747.4168426940156 383.1377099498576L727.7353143048584 383.1377099498576L727.7353143048584 358.56992139196376L675.8153878191762 358.56992139196376L675.8153878191762 405.30331473764625L725.8244863059111 405.30331473764625L725.8244863059111 421.40886501448773L675.8153878191762 421.40886501448773L675.8153878191762 470.9266077300648L690.3922756968599 470.9266077300648L690.3922756968599 487.44162114953787L643.1948241228616 487.44162114953787L643.1948241228616 470.9266077300648L657.0073808009664 470.9266077300648L657.0073808009664 358.56992139196376L643.1948241228616 358.56992139196376ZM807.0073787183292 487.44162114953787L807.0073787183292 478.21505166890665Q801.3294898071715 483.51077498027485 794.4778065538034 486.8683727498537Q787.6261233004352 490.2259705194325 778.8909095909619 490.2259705194325L778.8909095909619 490.2259705194325Q771.60246565212 490.2259705194325 765.4878160554887 487.93297692069575Q759.4004640016994 485.6126857791169 754.9782620612785 481.62724452416967Q750.5833576636998 477.6418032692224 748.1265788079104 472.37337750069634Q745.669799952121 467.1049517321702 745.669799952121 461.15408739259146L745.669799952121 461.15408739259146Q745.669799952121 454.8210574532233 747.5533304082262 449.90749974164453Q749.4368608643314 445.02123957290786 752.5487807483313 441.4179639177501Q755.6607006323311 437.81468826259237 759.837224687173 435.38520694964507Q764.0137487420151 432.9284280938557 768.5724383966465 431.45436078038205Q773.1311280512779 429.95299592406633 777.880900505804 429.32515243869796Q782.6306729603301 428.6973089533296 786.9436847293825 428.6973089533296L786.9436847293825 428.6973089533296Q793.8499630684349 428.6973089533296 798.5724379801189 429.1340696388032Q803.2676153489609 429.57083032427687 807.0892713468555 430.3351615238558L807.0892713468555 430.3351615238558L807.1984615182239 422.17319621406665Q807.1984615182239 416.9047704455405 805.669799119066 413.0285193619617Q804.1138391770661 409.12497073554084 801.3294898071715 406.5862992512251Q798.5724379801189 404.04762776690944 794.6688893536981 402.79194079617264Q790.7926382701193 401.56355136827796 785.988270729909 401.56355136827796L785.988270729909 401.56355136827796Q781.4841761609617 401.56355136827796 777.3622471918039 402.1640973108042Q773.2130206798041 402.79194079617264 769.6370425674885 403.8019498813305Q766.0337669123307 404.81195896648836 763.0037396568572 406.12224102290935Q759.9737124013836 407.4052255364883 757.8718016025416 408.85199530711975L757.8718016025416 408.85199530711975L752.0028298914891 396.45891085680444Q755.5788080038049 394.1659172580677 759.7826296014889 392.2004941734362Q764.0137487420151 390.23507108880466 768.6543310251727 388.84289640385737Q773.3222108511726 387.45072171891 778.1538759342251 386.6317954336469Q783.0128385601196 385.8128691483838 787.7080159289615 385.8128691483838L787.7080159289615 385.8128691483838Q796.3613370099085 385.8128691483838 803.2676153489609 387.8874824043837Q810.1738936880133 389.9347981175415 814.9782612282237 394.247809886594Q819.7553312255918 398.5881191984886 822.3485977955918 405.248719651962Q824.9418643655916 411.9093201054354 824.9418643655916 421.217782214593L824.9418643655916 421.217782214593L824.8599717370654 470.9266077300648L835.8881790452755 470.9266077300648L835.8881790452755 487.44162114953787L807.0073787183292 487.44162114953787ZM782.8217557602248 475.26691704195935L782.8217557602248 475.26691704195935Q786.3704363296984 475.26691704195935 789.919116899172 474.39339567101206Q793.4677974686455 473.51987430006466 796.6343124383296 472.04580698659106Q799.8008274080137 470.54444213027534 802.503284149382 468.57901904564386Q805.1784433479082 466.6135959610123 807.0073787183292 464.5116851621703L807.0073787183292 464.5116851621703L807.0892713468555 442.04580740311854L786.3704363296984 442.04580740311854Q781.1839031896985 442.04580740311854 776.9254865063303 443.19230420248687Q772.6397722801199 444.33880100185524 769.52785239612 446.5499019720657Q766.4159325121202 448.76100294227615 764.6961873130676 452.0367080833287Q762.949144571173 455.2851156815391 762.949144571173 459.5162348220652L762.949144571173 459.5162348220652Q762.949144571173 463.4470809913282 764.3959143418045 466.3679180754334Q765.842684112436 469.31605270238066 768.463248225278 471.28147578701214Q771.1111098809621 473.2468988716437 774.7689806218041 474.2569079568015Q778.3995538198039 475.26691704195935 782.8217557602248 475.26691704195935ZM848.3631561241172 404.5116859952252L848.3631561241172 388.0239701185942L882.7307625623263 388.0239701185942L882.7307625623263 404.5116859952252L873.4223004531688 404.5116859952252L897.9900890110627 473.05581607174895L921.9846291692721 404.5116859952252L915.924574658325 404.5116859952252L915.924574658325 388.0239701185942L947.3986415552712 388.0239701185942L947.3986415552712 404.5116859952252L938.8545106456926 404.5116859952252L906.3431371207465 488.9702835486957L888.681626901905 488.9702835486957L856.2248484626431 404.5116859952252L848.3631561241172 404.5116859952252ZM960.8290326335865 404.5116859952252L960.8290326335865 388.0239701185942L993.2858110728486 388.0239701185942L993.2858110728486 470.9266077300648L1008.2448645503215 470.9266077300648L1008.2448645503215 487.44162114953787L961.0201154334812 487.44162114953787L961.0201154334812 470.9266077300648L975.2421352542176 470.9266077300648L975.2421352542176 404.5116859952252L960.8290326335865 404.5116859952252ZM971.8845374846388 352.81013985227975L971.8845374846388 352.81013985227975Q971.8845374846388 350.2987659108062 972.8945465697966 348.0603673977536Q973.9045556549545 345.794671341859 975.5697057683228 344.10222368564854Q977.2621534245333 342.4370735722802 979.55514702327 341.4270644871223Q981.8481406220068 340.41705540196443 984.4414071920067 340.41705540196443L984.4414071920067 340.41705540196443Q986.9527811334802 340.41705540196443 989.1911796465328 341.4270644871223Q991.4568757024275 342.4370735722802 993.1220258157958 344.10222368564854Q994.8144734720064 345.794671341859 995.8244825571642 348.0603673977536Q996.8344916423221 350.2987659108062 996.8344916423221 352.81013985227975L996.8344916423221 352.81013985227975Q996.8344916423221 355.3761088794376 995.8244825571642 357.6964000210164Q994.8144734720064 359.98939361975323 993.1220258157958 361.76373390449Q991.4568757024275 363.53807418922673 989.1911796465328 364.5480832743846Q986.9527811334802 365.55809235954246 984.4414071920067 365.55809235954246L984.4414071920067 365.55809235954246Q981.8481406220068 365.55809235954246 979.55514702327 364.5480832743846Q977.2621534245333 363.53807418922673 975.5697057683228 361.76373390449Q973.9045556549545 359.98939361975323 972.8945465697966 357.6964000210164Q971.8845374846388 355.3761088794376 971.8845374846388 352.81013985227975ZM1114.4869012917911 414.50258667543534L1096.4432254731605 414.50258667543534Q1092.403189132529 407.29603536511985 1086.2339444502136 403.938437595541Q1080.0374022250558 400.5808398259622 1071.8754369152666 400.5808398259622L1071.8754369152666 400.5808398259622Q1065.6515971472668 400.5808398259622 1060.1647910360039 403.1741063959621Q1054.705282467583 405.76737296596195 1050.6106510412674 410.5717405061723Q1046.5433171577938 415.3761080463827 1044.195728473373 422.22779129975083Q1041.8481397889518 429.07947455311904 1041.8481397889518 437.54171283417134L1041.8481397889518 437.54171283417134Q1041.8481397889518 445.8947609438552 1044.195728473373 452.60995648301287Q1046.5433171577938 459.3251520221705 1050.6652461269518 464.07492447669665Q1054.7871750961094 468.8246969312228 1060.2193861216883 471.3633684155385Q1065.6515971472668 473.9020398998541 1071.8754369152666 473.9020398998541L1071.8754369152666 473.9020398998541Q1081.1020063958977 473.9020398998541 1087.899094563582 469.45254041659115Q1094.7234802741077 464.97574339048606 1098.7362190718973 456.3497198523811L1098.7362190718973 456.3497198523811L1113.5314872923177 463.63816379122295Q1110.6379477510545 469.7801109306964 1106.4341261533705 474.66637109943304Q1102.2030070128444 479.5799288110118 1096.879986158634 483.01941920911696Q1091.5569653044236 486.4862071500642 1085.1693402793712 488.34244006332733Q1078.781715254319 490.2259705194325 1071.6843541153717 490.2259705194325L1071.6843541153717 490.2259705194325Q1061.3112878353722 490.2259705194325 1052.5487765830567 486.3497194358537Q1043.758967787899 482.4461708094328 1037.3713427628468 475.4579998418541Q1030.9837177377944 468.4425313314333 1027.4350371683208 458.75190362248634Q1023.8863565988473 449.0612759135393 1023.8863565988473 437.54171283417134L1023.8863565988473 437.54171283417134Q1023.8863565988473 426.0221497548033 1027.6261199682158 416.33152204585633Q1031.365883337584 406.64089433690935 1037.9172936196887 399.6800209121727Q1044.441406358952 392.71914748743615 1053.149322525583 388.7883013181732Q1061.8845362350567 384.85745514891016 1071.8754369152666 384.85745514891016L1071.8754369152666 384.85745514891016Q1081.2930891957926 384.85745514891016 1089.6734348483187 388.10586274712057Q1098.0810780436868 391.3815678881731 1104.4141079830547 397.9875732559623L1104.4141079830547 397.9875732559623L1114.4869012917911 397.9875732559623L1114.4869012917911 414.50258667543534ZM1130.619749111475 437.73279563406606L1130.619749111475 437.73279563406606Q1130.7016417400014 425.91295958343494 1134.3868100236855 416.2223318744879Q1138.0992758502116 406.53170416554093 1144.705281218001 399.57083074080435Q1151.3385841286322 392.63725485890984 1160.4559634378948 388.8701939466995Q1169.5733427471578 385.1304305773312 1180.5196574268416 385.1304305773312L1180.5196574268416 385.1304305773312Q1191.5478647350515 385.1304305773312 1200.7198391299985 388.8701939466995Q1209.8918135249455 392.63725485890984 1216.4159262642088 399.488938112278Q1222.9400390034716 406.3406213656462 1226.5706122014712 416.0312490745932Q1230.2284829423133 425.7218767835402 1230.2284829423133 437.54171283417134L1230.2284829423133 437.54171283417134Q1230.2284829423133 449.1431685420656 1226.5706122014712 458.8883913366968Q1222.9400390034716 468.63361413132805 1216.4159262642088 475.6490826417488Q1209.8918135249455 482.6372536093275 1200.7198391299985 486.5408022357484Q1191.5478647350515 490.41705331932724 1180.5196574268416 490.41705331932724L1180.5196574268416 490.41705331932724Q1169.2730697758943 490.41705331932724 1160.1556904666318 486.5680997785905Q1151.0383111573688 482.7464437806959 1144.514198418106 475.78557035595935Q1137.9900856788431 468.8246969312228 1134.359512480843 459.1340692222758Q1130.7016417400014 449.44344151332876 1130.619749111475 437.73279563406606ZM1149.509648758211 437.73279563406606L1149.509648758211 437.73279563406606Q1149.509648758211 446.27692654364466 1151.9664276140006 453.18320488269705Q1154.3959089269479 460.08948322174945 1158.681623153158 464.94844584764394Q1162.9400398365265 469.7801109306964 1168.5633336619999 472.4279725863805Q1174.1866274874733 475.0485366992225 1180.5196574268416 475.0485366992225L1180.5196574268416 475.0485366992225Q1187.125662794631 475.0485366992225 1192.8308492486303 472.48256767206476Q1198.5633332454722 469.8893011020648 1202.7671548431563 465.0303384761703Q1206.9982739836828 460.1986733931178 1209.4004577537876 453.26509751122336Q1211.8026415238928 446.35881917217097 1211.8026415238928 437.73279563406606L1211.8026415238928 437.73279563406606Q1211.8026415238928 428.6973089533296 1209.4004577537876 421.7091379857509Q1206.9982739836828 414.69366947533007 1202.8217499288407 409.99849210648813Q1198.6452258739987 405.30331473764625 1192.8854443343148 402.90113096754106Q1187.125662794631 400.4989471974359 1180.5196574268416 400.4989471974359L1180.5196574268416 400.4989471974359Q1174.1866274874733 400.4989471974359 1168.5633336619999 402.90113096754106Q1162.9400398365265 405.30331473764625 1158.681623153158 409.99849210648813Q1154.3959089269479 414.69366947533007 1151.9664276140006 421.7091379857509Q1149.509648758211 428.6973089533296 1149.509648758211 437.73279563406606ZM1314.9600559242049 487.44162114953787L1314.9600559242049 470.9266077300648L1328.963695402204 470.9266077300648L1328.963695402204 425.5307939836455Q1328.963695402204 414.1204210756459 1323.176616319678 408.2241518217514Q1317.3622396943097 402.3278825678569 1306.5251151859948 402.3278825678569L1306.5251151859948 402.3278825678569Q1300.2739778751525 402.3278825678569 1293.9409479357846 405.30331473764625Q1287.6079179964163 408.27874690743556 1281.9573266281009 412.67365130501435L1281.9573266281009 412.67365130501435L1281.9573266281009 470.9266077300648L1295.9609661061004 470.9266077300648L1295.9609661061004 487.44162114953787L1249.5005481888388 487.44162114953787L1249.5005481888388 470.9266077300648L1263.3404024097854 470.9266077300648L1263.3404024097854 404.5116859952252L1249.5005481888388 404.5116859952252L1249.5005481888388 388.0239701185942L1281.192995428522 388.0239701185942L1281.192995428522 399.73461599785696L1281.3840782284165 399.73461599785696Q1284.5505931981006 396.9502666279623 1288.1265713104162 394.4388926864887Q1291.7298469655739 391.9548162878573 1295.660693134837 390.12588091743623Q1299.618836846942 388.2969455470153 1303.8772535303106 387.2596389190153Q1308.1629677565206 386.19503474817327 1312.8581451253626 386.19503474817327L1312.8581451253626 386.19503474817327Q1320.8290276352573 386.19503474817327 1327.2439502031516 388.4061357183837Q1333.6861703138884 390.6172366885941 1338.1902648828354 395.1213312575413Q1342.6943594517825 399.62542582648854 1345.1511383075722 406.69548942259354Q1347.5806196205194 413.7382554758564 1347.5806196205194 423.3469905562771L1347.5806196205194 423.3469905562771L1347.5806196205194 470.9266077300648L1361.420473841466 470.9266077300648L1361.420473841466 487.44162114953787L1314.9600559242049 487.44162114953787ZM1380.228480859676 475.84016544164353L1380.228480859676 475.84016544164353Q1380.228480859676 473.3287915001699 1381.2384899448339 471.0903929871174Q1382.2484990299918 468.8246969312228 1383.968244229044 467.1322492750123Q1385.6879894280964 465.46709916164394 1387.9536854839916 464.4570900764861Q1390.192083997044 463.4470809913282 1392.7853505670437 463.4470809913282L1392.7853505670437 463.4470809913282Q1395.2967245085174 463.4470809913282 1397.5351230215701 464.4570900764861Q1399.8008190774644 465.46709916164394 1401.4659691908332 467.1322492750123Q1403.1584168470436 468.8246969312228 1404.1684259322014 471.0903929871174Q1405.1784350173593 473.3287915001699 1405.1784350173593 475.84016544164353L1405.1784350173593 475.84016544164353Q1405.1784350173593 478.43343201164345 1404.1684259322014 480.7264256103802Q1403.1584168470436 483.01941920911696 1401.4659691908332 484.7937594938537Q1399.8008190774644 486.5680997785905 1397.5351230215701 487.5781088637484Q1395.2967245085174 488.58811794890624 1392.7853505670437 488.58811794890624L1392.7853505670437 488.58811794890624Q1390.192083997044 488.58811794890624 1387.9536854839916 487.5781088637484Q1385.6879894280964 486.5680997785905 1383.968244229044 484.7937594938537Q1382.2484990299918 483.01941920911696 1381.2384899448339 480.7264256103802Q1380.228480859676 478.43343201164345 1380.228480859676 475.84016544164353ZM1423.6042764357799 404.5116859952252L1423.6042764357799 388.0239701185942L1456.0337573321995 388.0239701185942L1456.0337573321995 470.9266077300648L1471.0201083525144 470.9266077300648L1471.0201083525144 487.44162114953787L1423.7953592356744 487.44162114953787L1423.7953592356744 470.9266077300648L1437.9900815135684 470.9266077300648L1437.9900815135684 404.5116859952252L1423.6042764357799 404.5116859952252ZM1434.6324837439897 352.81013985227975L1434.6324837439897 352.81013985227975Q1434.6324837439897 350.2987659108062 1435.6424928291476 348.0603673977536Q1436.652501914305 345.794671341859 1438.3176520276738 344.10222368564854Q1440.0100996838842 342.4370735722802 1442.303093282621 341.4270644871223Q1444.6233844241997 340.41705540196443 1447.2166509941994 340.41705540196443L1447.2166509941994 340.41705540196443Q1449.7007273928311 340.41705540196443 1451.966423448726 341.4270644871223Q1454.2048219617786 342.4370735722802 1455.897269617989 344.10222368564854Q1457.5624197313573 345.794671341859 1458.5724288165152 348.0603673977536Q1459.582437901673 350.2987659108062 1459.582437901673 352.81013985227975L1459.582437901673 352.81013985227975Q1459.582437901673 355.3761088794376 1458.5724288165152 357.6964000210164Q1457.5624197313573 359.98939361975323 1455.897269617989 361.76373390449Q1454.2048219617786 363.53807418922673 1451.966423448726 364.5480832743846Q1449.7007273928311 365.55809235954246 1447.2166509941994 365.55809235954246L1447.2166509941994 365.55809235954246Q1444.6233844241997 365.55809235954246 1442.303093282621 364.5480832743846Q1440.0100996838842 363.53807418922673 1438.3176520276738 361.76373390449Q1436.652501914305 359.98939361975323 1435.6424928291476 357.6964000210164Q1434.6324837439897 355.3761088794376 1434.6324837439897 352.81013985227975ZM1486.0610544585138 437.73279563406606L1486.0610544585138 437.73279563406606Q1486.1702446298823 425.91295958343494 1489.8554129135664 416.2223318744879Q1493.5678787400925 406.53170416554093 1500.1738841078818 399.57083074080435Q1506.807187018513 392.63725485890984 1515.9245663277761 388.8701939466995Q1525.0419456370387 385.1304305773312 1535.9882603167225 385.1304305773312L1535.9882603167225 385.1304305773312Q1547.0164676249328 385.1304305773312 1556.1884420198799 388.8701939466995Q1565.3331188719849 392.63725485890984 1571.8572316112477 399.488938112278Q1578.4086418933525 406.3406213656462 1582.0392150913522 416.0312490745932Q1585.6970858321943 425.7218767835402 1585.6970858321943 437.54171283417134L1585.6970858321943 437.54171283417134Q1585.6970858321943 449.1431685420656 1582.0392150913522 458.8883913366968Q1578.4086418933525 468.63361413132805 1571.8572316112477 475.6490826417488Q1565.3331188719849 482.6372536093275 1556.1884420198799 486.5408022357484Q1547.0164676249328 490.41705331932724 1535.9882603167225 490.41705331932724L1535.9882603167225 490.41705331932724Q1524.7416726657757 490.41705331932724 1515.6242933565127 486.5680997785905Q1506.5069140472501 482.7464437806959 1499.9828013079868 475.78557035595935Q1493.458688568724 468.8246969312228 1489.8281153707244 459.1340692222758Q1486.1702446298823 449.44344151332876 1486.0610544585138 437.73279563406606ZM1504.9782516480923 437.73279563406606L1504.9782516480923 437.73279563406606Q1504.9782516480923 446.27692654364466 1507.4350305038815 453.18320488269705Q1509.8645118168288 460.08948322174945 1514.1502260430393 464.94844584764394Q1518.4086427264074 469.7801109306964 1524.0319365518808 472.4279725863805Q1529.6552303773542 475.0485366992225 1535.9882603167225 475.0485366992225L1535.9882603167225 475.0485366992225Q1542.5942656845118 475.0485366992225 1548.2994521385117 472.48256767206476Q1554.0319361353536 469.8893011020648 1558.2357577330376 465.0303384761703Q1562.4668768735637 460.1986733931178 1564.869060643669 453.26509751122336Q1567.2712444137742 446.35881917217097 1567.2712444137742 437.73279563406606L1567.2712444137742 437.73279563406606Q1567.2712444137742 428.6973089533296 1564.869060643669 421.7091379857509Q1562.4668768735637 414.69366947533007 1558.2903528187217 409.99849210648813Q1554.11382876388 405.30331473764625 1548.3540472241957 402.90113096754106Q1542.5942656845118 400.4989471974359 1535.9882603167225 400.4989471974359L1535.9882603167225 400.4989471974359Q1529.6552303773542 400.4989471974359 1524.0319365518808 402.90113096754106Q1518.4086427264074 405.30331473764625 1514.1502260430393 409.99849210648813Q1509.8645118168288 414.69366947533007 1507.4350305038815 421.7091379857509Q1504.9782516480923 428.6973089533296 1504.9782516480923 437.73279563406606Z " fill="#ec8b5e" transform="matrix(0.5518077812082147,0,0,0.5518077812082147,0,70.76963756359436)"/></g></svg>